<svg xmlns="http://www.w3.org/2000/svg" xmlns:xlink="http://www.w3.org/1999/xlink" width="1080" zoomAndPan="magnify" viewBox="0 0 810 809.999993" height="1080" preserveAspectRatio="xMidYMid meet" version="1.0"><defs><g/></defs><g fill="#ffffff" fill-opacity="1"><g transform="translate(0.0000035, 614.294579)"><g><path d="M 194.25 -423.984375 L 68.484375 -42.34375 C 65.578125 -33.625 60.285156 -26.046875 52.609375 -19.609375 C 44.929688 -13.179688 34.453125 -9.96875 21.171875 -9.96875 L 21.171875 0 L 115.1875 0 L 115.1875 -9.96875 C 107.707031 -9.96875 101.6875 -10.691406 97.125 -12.140625 C 92.5625 -13.585938 89.035156 -15.453125 86.546875 -17.734375 C 84.054688 -20.023438 82.394531 -22.519531 81.5625 -25.21875 C 80.726562 -27.914062 80.3125 -30.300781 80.3125 -32.375 C 80.3125 -34.863281 80.414062 -37.039062 80.625 -38.90625 C 80.832031 -40.78125 81.5625 -43.375 82.8125 -46.6875 L 108.953125 -130.125 L 234.09375 -130.125 L 273.9375 -9.96875 L 240.328125 -9.96875 L 240.328125 0 L 407.796875 0 L 407.796875 -9.96875 L 374.171875 -9.96875 L 237.203125 -423.984375 Z M 171.21875 -320.015625 L 230.359375 -140.078125 L 112.6875 -140.078125 Z M 171.21875 -320.015625 "/></g></g></g><g fill="#ffffff" fill-opacity="1"><g transform="translate(421.497785, 614.294579)"><g><path d="M 316.90625 -392.859375 C 307.351562 -402.398438 295 -410.59375 279.84375 -417.4375 C 264.695312 -424.289062 245.296875 -427.71875 221.640625 -427.71875 C 186.773438 -427.71875 156.367188 -421.488281 130.421875 -409.03125 C 104.484375 -396.582031 82.898438 -380.191406 65.671875 -359.859375 C 48.453125 -339.523438 35.484375 -316.28125 26.765625 -290.125 C 18.054688 -263.976562 13.703125 -237.207031 13.703125 -209.8125 C 13.703125 -182.414062 18.054688 -155.75 26.765625 -129.8125 C 35.484375 -103.875 48.453125 -80.734375 65.671875 -60.390625 C 82.898438 -40.054688 104.484375 -23.660156 130.421875 -11.203125 C 156.367188 1.242188 186.566406 7.46875 221.015625 7.46875 C 236.785156 7.46875 250.789062 5.703125 263.03125 2.171875 C 275.28125 -1.347656 285.867188 -5.597656 294.796875 -10.578125 C 303.722656 -15.566406 311.085938 -20.757812 316.890625 -26.15625 C 322.703125 -31.550781 327.0625 -36.113281 329.96875 -39.84375 L 354.875 -4.359375 C 357.78125 -0.203125 360.269531 1.875 362.34375 1.875 C 364.425781 1.875 365.46875 -0.410156 365.46875 -4.984375 L 365.46875 -146.9375 C 365.46875 -152.332031 363.804688 -155.03125 360.484375 -155.03125 C 357.578125 -155.03125 355.5 -152.332031 354.25 -146.9375 C 353.007812 -140.289062 351.144531 -132.085938 348.65625 -122.328125 C 346.164062 -112.578125 342.84375 -102.410156 338.6875 -91.828125 C 334.539062 -81.242188 329.25 -70.660156 322.8125 -60.078125 C 316.382812 -49.492188 308.394531 -40.050781 298.84375 -31.75 C 289.300781 -23.445312 278.195312 -16.703125 265.53125 -11.515625 C 252.875 -6.328125 238.035156 -3.734375 221.015625 -3.734375 C 205.660156 -3.734375 192.484375 -6.015625 181.484375 -10.578125 C 170.484375 -15.148438 161.351562 -23.765625 154.09375 -36.421875 C 146.832031 -49.078125 141.539062 -66.816406 138.21875 -89.640625 C 134.894531 -112.472656 133.234375 -142.15625 133.234375 -178.6875 L 133.234375 -240.9375 C 133.234375 -277.882812 134.476562 -307.875 136.96875 -330.90625 C 139.457031 -353.945312 144.019531 -371.796875 150.65625 -384.453125 C 157.300781 -397.109375 166.640625 -405.613281 178.671875 -409.96875 C 190.710938 -414.332031 206.488281 -416.515625 226 -416.515625 C 241.351562 -416.515625 255.046875 -413.921875 267.078125 -408.734375 C 279.117188 -403.546875 290.015625 -395.96875 299.765625 -386 C 309.523438 -376.039062 318.140625 -364.003906 325.609375 -349.890625 C 333.085938 -335.785156 339.9375 -319.804688 346.15625 -301.953125 C 347.40625 -297.804688 349.691406 -295.734375 353.015625 -295.734375 C 355.921875 -295.734375 357.375 -297.804688 357.375 -301.953125 L 357.375 -412.15625 C 357.375 -418.800781 354.878906 -422.125 349.890625 -422.125 C 346.578125 -422.125 343.46875 -420.253906 340.5625 -416.515625 Z M 316.90625 -392.859375 "/></g></g></g></svg>